<svg xmlns="http://www.w3.org/2000/svg" version="1.1" xmlns:xlink="http://www.w3.org/1999/xlink" xmlns:svgjs="http://svgjs.dev/svgjs" width="2000" height="1247" viewBox="0 0 2000 1247"><g transform="matrix(1,0,0,1,-1.2121212121212466,0.504858299595071)"><svg viewBox="0 0 396 247" data-background-color="#2a160c" preserveAspectRatio="xMidYMid meet" height="1247" width="2000" xmlns="http://www.w3.org/2000/svg" xmlns:xlink="http://www.w3.org/1999/xlink"><g id="tight-bounds" transform="matrix(1,0,0,1,0.2400000000000091,-0.09999999999999432)"><svg viewBox="0 0 395.52 247.2" height="247.2" width="395.52"><g><svg></svg></g><g><svg viewBox="0 0 395.52 247.2" height="247.2" width="395.52"><mask id="0a2a209e-f41c-4d1f-bbdb-f6d2b8bf4a74"><rect width="640" height="400" fill="white"></rect><g transform="matrix(1,0,0,1,39.55199999999999,80.85731350838341)"><svg viewBox="0 0 316.416 85.48537298323315" height="85.48537298323315" width="316.416"><g><svg viewBox="0 0 316.416 85.48537298323315" height="85.48537298323315" width="316.416"><g><svg viewBox="0 0 316.416 85.48537298323315" height="85.48537298323315" width="316.416"><g><svg viewBox="0 0 316.416 85.48537298323315" height="85.48537298323315" width="316.416"><g id="SvgjsG1097"><svg viewBox="0 0 316.416 85.48537298323315" height="85.48537298323315" width="316.416" id="SvgjsSvg1096"><g><svg viewBox="0 0 316.416 85.48537298323315" height="85.48537298323315" width="316.416"><g transform="matrix(1,0,0,1,0,0)"><svg width="316.416" viewBox="-2.3 -39.05 159.04000000000002 43.699999999999996" height="85.48537298323315" data-palette-color="url(#b4930828-84d6-46c7-b1c5-76da52cdb7dd)"><path d="M5.45 0.55Q4.2 0.55 3.23-0.08 2.25-0.7 1.7-1.7L1.7-1.7 3.75-2.55Q4.35-1.6 5.45-1.6L5.45-1.6Q6.05-1.6 6.55-1.95 7.05-2.3 7.25-2.95L7.25-2.95 13.9-34.25 16.35-34.25 26.95-5.35 27.85-2.15 28.75-5.35 39.4-34.25 41.95-34.25 48.95-0.05 46.7-0.05 41-28.45 40.4-32 39.4-28.45 29.15-0.05 26.55-0.05 16.35-28.4 15.35-32.05 14.8-28.4 9.45-2.8Q9.15-1.35 8.05-0.4 6.95 0.55 5.45 0.55L5.45 0.55ZM71.3-3.8Q68 0.35 62.3 0.35L62.3 0.35Q58.55 0.35 56.6-1.38 54.65-3.1 54.45-6.75L54.45-6.75 54.45-18.2Q54.45-20.4 54-21.68 53.55-22.95 52.6-24.15L52.6-24.15 54-25.5Q55.15-24.35 55.85-22.88 56.55-21.4 56.55-19.85L56.55-19.85 56.55-8.05Q56.55-1.55 62.6-1.55L62.6-1.55Q65.35-1.55 67.3-2.83 69.25-4.1 71.25-6.75L71.25-6.75 71.3-25 73.4-25 73.35-3.9Q73.35-2.7 73.9-2.13 74.45-1.55 75.35-1.55L75.35-1.55Q75.8-1.55 76.27-1.8 76.75-2.05 76.95-2.4L76.95-2.4 78.55-1.4Q78.05-0.55 77.17-0.1 76.3 0.35 75.35 0.35L75.35 0.35Q73.5 0.35 72.45-0.73 71.4-1.8 71.3-3.8L71.3-3.8ZM81.4-0.45L100.3-32.2 83.1-32.2 83.1-34.2 103.8-34.2 85.85-4.05 88.1-3.65Q89.25-3.45 92.55-2.55L92.55-2.55Q94.85-1.9 96.15-1.63 97.45-1.35 98.65-1.35L98.65-1.35Q101.95-1.35 104.75-3.85L104.75-3.85 106.15-2.45Q104.3-0.75 102.52-0.05 100.75 0.65 98.65 0.65L98.65 0.65Q96.9 0.65 95.15 0.25 93.4-0.15 90.85-0.9L90.85-0.9Q87.1-2.1 84.9-2.45L84.9-2.45 83.1 0.55 81.4-0.45ZM114.09-3.8Q114.09-2.6 114.64-2 115.19-1.4 116.09-1.4L116.09-1.4Q116.94-1.4 117.59-2.2L117.59-2.2 119.14-1.1Q117.99 0.5 116.04 0.5L116.04 0.5Q114.24 0.5 113.12-0.68 111.99-1.85 111.99-3.85L111.99-3.85 111.99-25 114.09-25 114.09-3.8ZM113.04-28.75Q112.24-28.75 111.74-29.25 111.24-29.75 111.24-30.55L111.24-30.55Q111.24-31.35 111.74-31.85 112.24-32.35 113.04-32.35L113.04-32.35Q113.84-32.35 114.37-31.85 114.89-31.35 114.89-30.55L114.89-30.55Q114.89-29.75 114.37-29.25 113.84-28.75 113.04-28.75L113.04-28.75ZM126.64-30.2Q126.64-33.05 124.29-33.05L124.29-33.05Q123.39-33.05 122.94-32.68 122.49-32.3 122.19-31.8L122.19-31.8 120.64-32.95Q121.74-35.05 124.39-35.05L124.39-35.05Q126.34-35.05 127.54-33.83 128.74-32.6 128.74-30.2L128.74-30.2 128.74-18.15 131.54-18.15Q133.34-18.15 135.04-18.9L135.04-18.9Q135.94-19.3 136.49-19.78 137.04-20.25 137.64-21L137.64-21Q139.69-23.6 141.24-26.55L141.24-26.55Q143.24-30.25 145.14-34.25L145.14-34.25 147.69-34.25Q144.69-28.55 142.79-25.25L142.79-25.25Q141.14-22.3 140.14-20.85L140.14-20.85Q139.94-20.6 139.34-19.75 138.74-18.9 138.29-18.45 137.84-18 137.24-17.55L137.24-17.55 147.79-2.65Q148.04-2.25 148.54-1.95 149.04-1.65 149.59-1.65L149.59-1.65Q150.39-1.65 151.09-2.25L151.09-2.25 152.74-1.1Q152.14-0.4 151.24-0.03 150.34 0.35 149.44 0.35L149.44 0.35Q147.44 0.35 146.14-1.5L146.14-1.5 135.24-16.9Q132.74-16.15 130.94-16.15L130.94-16.15Q130.29-16.15 129.79-16.2 129.29-16.25 128.84-16.25L128.84-16.25 128.84-0.1 126.64-0.1 126.64-30.2Z" opacity="1" transform="matrix(1,0,0,1,0,0)" fill="black" class="wordmark-text-0" id="SvgjsPath1095" stroke-width="7" stroke="black" stroke-linejoin="round"></path></svg></g></svg></g></svg></g></svg></g></svg></g></svg></g></svg></g></mask><g transform="matrix(1,0,0,1,39.55199999999999,80.85731350838341)"><svg viewBox="0 0 316.416 85.48537298323315" height="85.48537298323315" width="316.416"><g><svg viewBox="0 0 316.416 85.48537298323315" height="85.48537298323315" width="316.416"><g><svg viewBox="0 0 316.416 85.48537298323315" height="85.48537298323315" width="316.416"><g><svg viewBox="0 0 316.416 85.48537298323315" height="85.48537298323315" width="316.416"><g id="textblocktransform"><svg viewBox="0 0 316.416 85.48537298323315" height="85.48537298323315" width="316.416" id="textblock"><g><svg viewBox="0 0 316.416 85.48537298323315" height="85.48537298323315" width="316.416"><g transform="matrix(1,0,0,1,0,0)"><svg width="316.416" viewBox="-2.3 -39.05 159.04000000000002 43.699999999999996" height="85.48537298323315" data-palette-color="url(#b4930828-84d6-46c7-b1c5-76da52cdb7dd)"></svg></g></svg></g></svg></g></svg></g></svg></g></svg></g></svg></g><g mask="url(#0a2a209e-f41c-4d1f-bbdb-f6d2b8bf4a74)"><g transform="matrix(6.138648210017953, 0, 0, 6.138648210017953, 45.08062377091201, 1)"><svg xmlns="http://www.w3.org/2000/svg" xmlns:xlink="http://www.w3.org/1999/xlink" version="1.1" x="0" y="0" viewBox="20.6 25.256352537054255 49.74364746294574 39.943647462945734" enable-background="new 0 0 90 90" xml:space="preserve" height="39.943647462945734" width="49.74364746294574" class="icon-none" data-fill-palette-color="accent" id="none"></svg></g></g></svg></g><defs></defs><mask id="05359c70-d677-4c02-bf63-fce30228a807"><g id="SvgjsG1107"><svg viewBox="0 0 395.52 247.2" height="247.2" width="395.52"><g><svg></svg></g><g><svg viewBox="0 0 395.52 247.2" height="247.2" width="395.52"><mask id="SvgjsMask1106"><g transform="matrix(1,0,0,1,39.55199999999999,80.85731350838341)"><svg viewBox="0 0 316.416 85.48537298323315" height="85.48537298323315" width="316.416"><g><svg viewBox="0 0 316.416 85.48537298323315" height="85.48537298323315" width="316.416"><g><svg viewBox="0 0 316.416 85.48537298323315" height="85.48537298323315" width="316.416"><g><svg viewBox="0 0 316.416 85.48537298323315" height="85.48537298323315" width="316.416"><g id="SvgjsG1105"><svg viewBox="0 0 316.416 85.48537298323315" height="85.48537298323315" width="316.416" id="SvgjsSvg1104"><g><svg viewBox="0 0 316.416 85.48537298323315" height="85.48537298323315" width="316.416"><g transform="matrix(1,0,0,1,0,0)"><svg width="316.416" viewBox="-2.3 -39.05 159.04000000000002 43.699999999999996" height="85.48537298323315" data-palette-color="url(#b4930828-84d6-46c7-b1c5-76da52cdb7dd)"></svg></g></svg></g></svg></g></svg></g></svg></g></svg></g></svg></g></mask><g transform="matrix(1,0,0,1,39.55199999999999,80.85731350838341)"><svg viewBox="0 0 316.416 85.48537298323315" height="85.48537298323315" width="316.416"><g><svg viewBox="0 0 316.416 85.48537298323315" height="85.48537298323315" width="316.416"><g><svg viewBox="0 0 316.416 85.48537298323315" height="85.48537298323315" width="316.416"><g><svg viewBox="0 0 316.416 85.48537298323315" height="85.48537298323315" width="316.416"><g id="SvgjsG1102"><svg viewBox="0 0 316.416 85.48537298323315" height="85.48537298323315" width="316.416" id="SvgjsSvg1101"><g><svg viewBox="0 0 316.416 85.48537298323315" height="85.48537298323315" width="316.416"><g transform="matrix(1,0,0,1,0,0)"><svg width="316.416" viewBox="-2.3 -39.05 159.04000000000002 43.699999999999996" height="85.48537298323315" data-palette-color="url(#b4930828-84d6-46c7-b1c5-76da52cdb7dd)"><path d="M5.45 0.55Q4.2 0.55 3.23-0.08 2.25-0.7 1.7-1.7L1.7-1.7 3.75-2.55Q4.35-1.6 5.45-1.6L5.45-1.6Q6.05-1.6 6.55-1.95 7.05-2.3 7.25-2.95L7.25-2.95 13.9-34.25 16.35-34.25 26.95-5.35 27.85-2.15 28.75-5.35 39.4-34.25 41.95-34.25 48.95-0.05 46.7-0.05 41-28.45 40.4-32 39.4-28.45 29.15-0.05 26.55-0.05 16.35-28.4 15.35-32.05 14.8-28.4 9.45-2.8Q9.15-1.35 8.05-0.4 6.95 0.55 5.45 0.55L5.45 0.55ZM71.3-3.8Q68 0.35 62.3 0.35L62.3 0.35Q58.55 0.35 56.6-1.38 54.65-3.1 54.45-6.75L54.45-6.75 54.45-18.2Q54.45-20.4 54-21.68 53.55-22.95 52.6-24.15L52.6-24.15 54-25.5Q55.15-24.35 55.85-22.88 56.55-21.4 56.55-19.85L56.55-19.85 56.55-8.05Q56.55-1.55 62.6-1.55L62.6-1.55Q65.35-1.55 67.3-2.83 69.25-4.1 71.25-6.75L71.25-6.75 71.3-25 73.4-25 73.35-3.9Q73.35-2.7 73.9-2.13 74.45-1.55 75.35-1.55L75.35-1.55Q75.8-1.55 76.27-1.8 76.75-2.05 76.95-2.4L76.95-2.4 78.55-1.4Q78.05-0.55 77.17-0.1 76.3 0.35 75.35 0.35L75.35 0.35Q73.5 0.35 72.45-0.73 71.4-1.8 71.3-3.8L71.3-3.8ZM81.4-0.45L100.3-32.2 83.1-32.2 83.1-34.2 103.8-34.2 85.85-4.05 88.1-3.65Q89.25-3.45 92.55-2.55L92.55-2.55Q94.85-1.9 96.15-1.63 97.45-1.35 98.65-1.35L98.65-1.35Q101.95-1.35 104.75-3.85L104.75-3.85 106.15-2.45Q104.3-0.75 102.52-0.05 100.75 0.65 98.65 0.65L98.65 0.65Q96.9 0.65 95.15 0.25 93.4-0.15 90.85-0.9L90.85-0.9Q87.1-2.1 84.9-2.45L84.9-2.45 83.1 0.55 81.4-0.45ZM114.09-3.8Q114.09-2.6 114.64-2 115.19-1.4 116.09-1.4L116.09-1.4Q116.94-1.4 117.59-2.2L117.59-2.2 119.14-1.1Q117.99 0.5 116.04 0.5L116.04 0.5Q114.24 0.5 113.12-0.68 111.99-1.85 111.99-3.85L111.99-3.85 111.99-25 114.09-25 114.09-3.8ZM113.04-28.75Q112.24-28.75 111.74-29.25 111.24-29.75 111.24-30.55L111.24-30.55Q111.24-31.35 111.74-31.85 112.24-32.35 113.04-32.35L113.04-32.35Q113.84-32.35 114.37-31.85 114.89-31.35 114.89-30.55L114.89-30.55Q114.89-29.75 114.37-29.25 113.84-28.75 113.04-28.75L113.04-28.75ZM126.64-30.2Q126.64-33.05 124.29-33.05L124.29-33.05Q123.39-33.05 122.94-32.68 122.49-32.3 122.19-31.8L122.19-31.8 120.64-32.95Q121.74-35.05 124.39-35.05L124.39-35.05Q126.34-35.05 127.54-33.83 128.74-32.6 128.74-30.2L128.74-30.2 128.74-18.15 131.54-18.15Q133.34-18.15 135.04-18.9L135.04-18.9Q135.94-19.3 136.49-19.78 137.04-20.25 137.64-21L137.64-21Q139.69-23.6 141.24-26.55L141.24-26.55Q143.24-30.25 145.14-34.25L145.14-34.25 147.69-34.25Q144.69-28.55 142.79-25.25L142.79-25.25Q141.14-22.3 140.14-20.85L140.14-20.85Q139.94-20.6 139.34-19.75 138.74-18.9 138.29-18.45 137.84-18 137.24-17.55L137.24-17.55 147.79-2.65Q148.04-2.25 148.54-1.95 149.04-1.65 149.59-1.65L149.59-1.65Q150.39-1.65 151.09-2.25L151.09-2.25 152.74-1.1Q152.14-0.4 151.24-0.03 150.34 0.35 149.44 0.35L149.44 0.35Q147.44 0.35 146.14-1.5L146.14-1.5 135.24-16.9Q132.74-16.15 130.94-16.15L130.94-16.15Q130.29-16.15 129.79-16.2 129.29-16.25 128.84-16.25L128.84-16.25 128.84-0.1 126.64-0.1 126.64-30.2Z" opacity="1" transform="matrix(1,0,0,1,0,0)" fill="white" class="wordmark-text-0" id="SvgjsPath1100"></path></svg></g></svg></g></svg></g></svg></g></svg></g></svg></g></svg></g><g mask="url(#0a2a209e-f41c-4d1f-bbdb-f6d2b8bf4a74)"><g transform="matrix(6.138648210017953, 0, 0, 6.138648210017953, 45.08062377091201, 1)"><svg xmlns="http://www.w3.org/2000/svg" xmlns:xlink="http://www.w3.org/1999/xlink" version="1.1" x="0" y="0" viewBox="20.6 25.256352537054255 49.74364746294574 39.943647462945734" enable-background="new 0 0 90 90" xml:space="preserve" height="39.943647462945734" width="49.74364746294574" class="icon-none" data-fill-palette-color="accent" id="SvgjsSvg1099"></svg></g></g></svg></g><defs><mask></mask></defs></svg></g></mask><linearGradient x1="0.054" x2="0.941" y1="0.5" y2="0.5" id="b4930828-84d6-46c7-b1c5-76da52cdb7dd"><stop stop-color="#9c7945" offset="0"></stop><stop stop-color="#faf3aa" offset="0.498"></stop><stop stop-color="#9c7945" offset="1"></stop></linearGradient><rect width="395.52" height="247.2" fill="url(#b4930828-84d6-46c7-b1c5-76da52cdb7dd)" mask="url(#05359c70-d677-4c02-bf63-fce30228a807)" data-fill-palette-color="primary"></rect><mask id="b1025c10-a3f9-4bad-9ea1-784cccd62aea"><g id="SvgjsG1123"><svg viewBox="0 0 395.52 247.2" height="247.2" width="395.52"><g><svg></svg></g><g><svg viewBox="0 0 395.52 247.2" height="247.2" width="395.52"><mask id="SvgjsMask1122"><g transform="matrix(1,0,0,1,39.55199999999999,80.85731350838341)"><svg viewBox="0 0 316.416 85.48537298323315" height="85.48537298323315" width="316.416"><g><svg viewBox="0 0 316.416 85.48537298323315" height="85.48537298323315" width="316.416"><g><svg viewBox="0 0 316.416 85.48537298323315" height="85.48537298323315" width="316.416"><g><svg viewBox="0 0 316.416 85.48537298323315" height="85.48537298323315" width="316.416"><g id="SvgjsG1121"><svg viewBox="0 0 316.416 85.48537298323315" height="85.48537298323315" width="316.416" id="SvgjsSvg1120"><g><svg viewBox="0 0 316.416 85.48537298323315" height="85.48537298323315" width="316.416"><g transform="matrix(1,0,0,1,0,0)"><svg width="316.416" viewBox="-2.3 -39.05 159.04000000000002 43.699999999999996" height="85.48537298323315" data-palette-color="url(#b4930828-84d6-46c7-b1c5-76da52cdb7dd)"></svg></g></svg></g></svg></g></svg></g></svg></g></svg></g></svg></g></mask><g transform="matrix(1,0,0,1,39.55199999999999,80.85731350838341)"><svg viewBox="0 0 316.416 85.48537298323315" height="85.48537298323315" width="316.416"><g><svg viewBox="0 0 316.416 85.48537298323315" height="85.48537298323315" width="316.416"><g><svg viewBox="0 0 316.416 85.48537298323315" height="85.48537298323315" width="316.416"><g><svg viewBox="0 0 316.416 85.48537298323315" height="85.48537298323315" width="316.416"><g id="SvgjsG1118"><svg viewBox="0 0 316.416 85.48537298323315" height="85.48537298323315" width="316.416" id="SvgjsSvg1117"><g><svg viewBox="0 0 316.416 85.48537298323315" height="85.48537298323315" width="316.416"><g transform="matrix(1,0,0,1,0,0)"><svg width="316.416" viewBox="-2.3 -39.05 159.04000000000002 43.699999999999996" height="85.48537298323315" data-palette-color="url(#b4930828-84d6-46c7-b1c5-76da52cdb7dd)"></svg></g></svg></g></svg></g></svg></g></svg></g></svg></g></svg></g><g mask="url(#0a2a209e-f41c-4d1f-bbdb-f6d2b8bf4a74)"><g transform="matrix(6.138648210017953, 0, 0, 6.138648210017953, 45.08062377091201, 1)"><svg xmlns="http://www.w3.org/2000/svg" xmlns:xlink="http://www.w3.org/1999/xlink" version="1.1" x="0" y="0" viewBox="20.6 25.256352537054255 49.74364746294574 39.943647462945734" enable-background="new 0 0 90 90" xml:space="preserve" height="39.943647462945734" width="49.74364746294574" class="icon-none" data-fill-palette-color="accent" id="SvgjsSvg1116"><g fill="white"><rect x="20.6" y="30.2" width="17.1" height="3" fill="white"></rect></g><g fill="white"><rect x="20.6" y="50.3" width="22.1" height="3" fill="white"></rect></g><g fill="white"><rect x="35.6" y="43.3" width="12.5" height="3" fill="white"></rect></g><g fill="white"><rect x="20.6" y="43.3" width="11.4" height="3" fill="white"></rect></g><g fill="white"><rect x="49.3" y="30.2" width="5.7" height="3" fill="white"></rect></g><g fill="white"><rect x="41.3" y="30.2" width="4.4" height="3" fill="white"></rect></g><g fill="white"><rect x="42.5" y="36.6" width="7.4" height="3" fill="white"></rect></g><g fill="white"><rect x="20.6" y="36.6" width="19" height="3" fill="white"></rect></g><g fill="white"><path d="M34 63.9c1-1.6 2.3-2.8 4.2-3 1.2-0.1 2.6 0.2 3.6 0 0.6-0.1 1-0.5 1.4-1l0.5-0.7 1.4 1-0.5 0.7c-0.7 0.9-1.5 1.6-2.6 1.8-1.3 0.2-2.4-0.1-3.7 0-1.5 0.1-2.3 1.2-3 2.4l-0.1 0.1L34 63.9z" fill="white"></path><polygon points="46.9,59.2 44,57.2 58.2,33.9 64,37.9  " fill="white"></polygon><path d="M69.2 35c-0.7 1.1-1.8 1.8-2.9 2.2l-8.3-5.8c0-1.2 0.4-2.4 1.1-3.5 1.9-2.8 5.8-3.5 8.6-1.5C70.5 28.4 71.2 32.2 69.2 35z" fill="white"></path></g></svg></g></g></svg></g><defs><mask></mask></defs><mask><g id="SvgjsG1115"><svg viewBox="0 0 395.52 247.2" height="247.2" width="395.52"><g><svg></svg></g><g><svg viewBox="0 0 395.52 247.2" height="247.2" width="395.52"><mask id="SvgjsMask1114"><g transform="matrix(1,0,0,1,39.55199999999999,80.85731350838341)"><svg viewBox="0 0 316.416 85.48537298323315" height="85.48537298323315" width="316.416"><g><svg viewBox="0 0 316.416 85.48537298323315" height="85.48537298323315" width="316.416"><g><svg viewBox="0 0 316.416 85.48537298323315" height="85.48537298323315" width="316.416"><g><svg viewBox="0 0 316.416 85.48537298323315" height="85.48537298323315" width="316.416"><g id="SvgjsG1113"><svg viewBox="0 0 316.416 85.48537298323315" height="85.48537298323315" width="316.416" id="SvgjsSvg1112"><g><svg viewBox="0 0 316.416 85.48537298323315" height="85.48537298323315" width="316.416"><g transform="matrix(1,0,0,1,0,0)"><svg width="316.416" viewBox="-2.3 -39.05 159.04000000000002 43.699999999999996" height="85.48537298323315" data-palette-color="url(#b4930828-84d6-46c7-b1c5-76da52cdb7dd)"></svg></g></svg></g></svg></g></svg></g></svg></g></svg></g></svg></g></mask><g transform="matrix(1,0,0,1,39.55199999999999,80.85731350838341)"><svg viewBox="0 0 316.416 85.48537298323315" height="85.48537298323315" width="316.416"><g><svg viewBox="0 0 316.416 85.48537298323315" height="85.48537298323315" width="316.416"><g><svg viewBox="0 0 316.416 85.48537298323315" height="85.48537298323315" width="316.416"><g><svg viewBox="0 0 316.416 85.48537298323315" height="85.48537298323315" width="316.416"><g id="SvgjsG1111"><svg viewBox="0 0 316.416 85.48537298323315" height="85.48537298323315" width="316.416" id="SvgjsSvg1110"><g><svg viewBox="0 0 316.416 85.48537298323315" height="85.48537298323315" width="316.416"><g transform="matrix(1,0,0,1,0,0)"><svg width="316.416" viewBox="-2.3 -39.05 159.04000000000002 43.699999999999996" height="85.48537298323315" data-palette-color="url(#b4930828-84d6-46c7-b1c5-76da52cdb7dd)"></svg></g></svg></g></svg></g></svg></g></svg></g></svg></g></svg></g><g mask="url(#0a2a209e-f41c-4d1f-bbdb-f6d2b8bf4a74)"><g transform="matrix(6.138648210017953, 0, 0, 6.138648210017953, 45.08062377091201, 1)"><svg xmlns="http://www.w3.org/2000/svg" xmlns:xlink="http://www.w3.org/1999/xlink" version="1.1" x="0" y="0" viewBox="20.6 25.256352537054255 49.74364746294574 39.943647462945734" enable-background="new 0 0 90 90" xml:space="preserve" height="39.943647462945734" width="49.74364746294574" class="icon-none" data-fill-palette-color="accent" id="SvgjsSvg1108"></svg></g></g></svg></g><defs><mask></mask></defs></svg></g></mask></svg></g></mask><linearGradient x1="0.054" x2="0.941" y1="0.5" y2="0.5" id="a039a958-8190-45e3-8d12-3820da973676"><stop stop-color="#9c7945" offset="0"></stop><stop stop-color="#faf3aa" offset="0.498"></stop><stop stop-color="#9c7945" offset="1"></stop></linearGradient><rect width="395.52" height="247.2" fill="url(#a039a958-8190-45e3-8d12-3820da973676)" mask="url(#b1025c10-a3f9-4bad-9ea1-784cccd62aea)" data-fill-palette-color="accent"></rect></svg><rect width="395.52" height="247.2" fill="none" stroke="none" visibility="hidden"></rect></g></svg></g></svg>